<mxfile host="app.diagrams.net" modified="2024-02-08T11:45:57.291Z" agent="Mozilla/5.0 (Macintosh; Intel Mac OS X 10_15_7) AppleWebKit/537.36 (KHTML, like Gecko) Chrome/121.0.0.0 Safari/537.36" etag="7CkxtTMrKN9kZofWxp3q" version="23.1.2" type="github">
  <diagram name="Page-1" id="efa7a0a1-bf9b-a30e-e6df-94a7791c09e9">
    <mxGraphModel dx="2132" dy="716" grid="1" gridSize="10" guides="1" tooltips="1" connect="1" arrows="1" fold="1" page="1" pageScale="1" pageWidth="826" pageHeight="1169" background="none" math="0" shadow="0">
      <root>
        <mxCell id="0" />
        <mxCell id="1" parent="0" />
        <mxCell id="21" value="&lt;p style=&quot;margin: 0px; margin-top: 4px; text-align: center; text-decoration: underline;&quot;&gt;&lt;strong&gt;Time&lt;/strong&gt;&lt;/p&gt;&lt;hr&gt;&lt;p style=&quot;margin: 0px; margin-left: 8px;&quot;&gt;&lt;b&gt;Time_Key (PK)&lt;/b&gt;&lt;/p&gt;&lt;p style=&quot;border-color: var(--border-color); margin: 0px 0px 0px 8px;&quot;&gt;Calendar Date&lt;/p&gt;&lt;p style=&quot;margin: 0px; margin-left: 8px;&quot;&gt;Year&lt;/p&gt;&lt;p style=&quot;margin: 0px; margin-left: 8px;&quot;&gt;Quarter&lt;/p&gt;&lt;p style=&quot;margin: 0px; margin-left: 8px;&quot;&gt;Month Number&lt;br&gt;&lt;/p&gt;&lt;p style=&quot;margin: 0px; margin-left: 8px;&quot;&gt;Month Name&lt;/p&gt;&lt;p style=&quot;margin: 0px; margin-left: 8px;&quot;&gt;Week Number&lt;/p&gt;&lt;p style=&quot;margin: 0px; margin-left: 8px;&quot;&gt;Day of Week&lt;/p&gt;&lt;p style=&quot;margin: 0px; margin-left: 8px;&quot;&gt;Day&lt;/p&gt;&lt;p style=&quot;margin: 0px; margin-left: 8px;&quot;&gt;&lt;br&gt;&lt;span style=&quot;&quot;&gt;&amp;nbsp;&lt;/span&gt;&lt;/p&gt;" style="verticalAlign=top;align=left;overflow=fill;fontSize=12;fontFamily=Helvetica;html=1;strokeColor=#003366;shadow=1;fillColor=#D4E1F5;fontColor=#003366" parent="1" vertex="1">
          <mxGeometry x="900" y="96" width="160" height="180" as="geometry" />
        </mxCell>
        <mxCell id="22" value="&lt;p style=&quot;margin: 0px; margin-top: 4px; text-align: center; text-decoration: underline;&quot;&gt;&lt;strong&gt;Invoice&lt;/strong&gt;&lt;/p&gt;&lt;hr&gt;&lt;p style=&quot;margin: 0px; margin-left: 8px;&quot;&gt;&lt;b&gt;Invoice_Number (PK)&lt;/b&gt;&lt;/p&gt;&lt;p style=&quot;margin: 0px; margin-left: 8px;&quot;&gt;&lt;br&gt;&lt;/p&gt;&lt;p style=&quot;margin: 0px; margin-left: 8px;&quot;&gt;Patient_ID (FK)&lt;/p&gt;&lt;p style=&quot;margin: 0px; margin-left: 8px;&quot;&gt;Visit_Type_ID (FK)&lt;/p&gt;&lt;p style=&quot;margin: 0px; margin-left: 8px;&quot;&gt;Date_of_admission (FK)&lt;/p&gt;&lt;p style=&quot;margin: 0px; margin-left: 8px;&quot;&gt;Date_of_discharge (FK)&lt;/p&gt;&lt;p style=&quot;margin: 0px; margin-left: 8px;&quot;&gt;Service_ID (FK)&lt;/p&gt;&lt;p style=&quot;border-color: var(--border-color); margin: 0px 0px 0px 8px;&quot;&gt;Doctor_ID (FK)&lt;br style=&quot;border-color: var(--border-color);&quot;&gt;&lt;/p&gt;&lt;p style=&quot;border-color: var(--border-color); margin: 0px 0px 0px 8px;&quot;&gt;Branch_ID (FK)&lt;/p&gt;&lt;p style=&quot;border-color: var(--border-color); margin: 0px 0px 0px 8px;&quot;&gt;Age_Group&lt;/p&gt;&lt;p style=&quot;border-color: var(--border-color); margin: 0px 0px 0px 8px;&quot;&gt;Diagnosis_ID (FK)&lt;/p&gt;&lt;p style=&quot;border-color: var(--border-color); margin: 0px 0px 0px 8px;&quot;&gt;Procedure_ID (FK)&lt;/p&gt;&lt;p style=&quot;border-color: var(--border-color); margin: 0px 0px 0px 8px;&quot;&gt;Invoice_dollar_amount&lt;/p&gt;&lt;p style=&quot;border-color: var(--border-color); margin: 0px 0px 0px 8px;&quot;&gt;Invoice_paid_amt&lt;/p&gt;&lt;p style=&quot;border-color: var(--border-color); margin: 0px 0px 0px 8px;&quot;&gt;Is_Invoice_due&lt;/p&gt;&lt;p style=&quot;border-color: var(--border-color); margin: 0px 0px 0px 8px;&quot;&gt;&lt;br&gt;&lt;/p&gt;&lt;p style=&quot;border-color: var(--border-color); margin: 0px 0px 0px 8px;&quot;&gt;&lt;br&gt;&lt;/p&gt;&lt;p style=&quot;border-color: var(--border-color); margin: 0px 0px 0px 8px;&quot;&gt;&lt;br&gt;&lt;/p&gt;" style="verticalAlign=top;align=left;overflow=fill;fontSize=12;fontFamily=Helvetica;html=1;strokeColor=#003366;shadow=1;fillColor=#D4E1F5;fontColor=#003366" parent="1" vertex="1">
          <mxGeometry x="500" y="312" width="160" height="265" as="geometry" />
        </mxCell>
        <mxCell id="25" value="&lt;p style=&quot;margin: 0px; margin-top: 4px; text-align: center; text-decoration: underline;&quot;&gt;&lt;b&gt;Diagnosis&lt;/b&gt;&lt;/p&gt;&lt;hr&gt;&lt;p style=&quot;margin: 0px; margin-left: 8px;&quot;&gt;&lt;b&gt;Diagnosis_ID (PK)&lt;/b&gt;&lt;br&gt;&lt;/p&gt;&lt;p style=&quot;margin: 0px; margin-left: 8px;&quot;&gt;Diagnosis_type&lt;br&gt;&lt;/p&gt;&lt;p style=&quot;margin: 0px; margin-left: 8px;&quot;&gt;Diagnosis_Desc&lt;/p&gt;&lt;p style=&quot;margin: 0px; margin-left: 8px;&quot;&gt;&lt;br&gt;&lt;/p&gt;&lt;p style=&quot;margin: 0px; margin-left: 8px;&quot;&gt;&lt;br&gt;&lt;/p&gt;" style="verticalAlign=top;align=left;overflow=fill;fontSize=12;fontFamily=Helvetica;html=1;strokeColor=#003366;shadow=1;fillColor=#D4E1F5;fontColor=#003366" parent="1" vertex="1">
          <mxGeometry x="490" y="96" width="180" height="146.16" as="geometry" />
        </mxCell>
        <mxCell id="27" value="&lt;p style=&quot;margin: 0px; margin-top: 4px; text-align: center; text-decoration: underline;&quot;&gt;&lt;strong style=&quot;border-color: var(--border-color);&quot;&gt;Patient&lt;/strong&gt;&lt;br&gt;&lt;/p&gt;&lt;hr&gt;&lt;p style=&quot;margin: 0px; margin-left: 8px;&quot;&gt;&lt;b style=&quot;background-color: initial; border-color: var(--border-color);&quot;&gt;Patient_ID (PK)&lt;/b&gt;&lt;/p&gt;&lt;p style=&quot;border-color: var(--border-color); margin: 0px 0px 0px 8px;&quot;&gt;Patient_fname&lt;br style=&quot;border-color: var(--border-color);&quot;&gt;&lt;/p&gt;&lt;p style=&quot;border-color: var(--border-color); margin: 0px 0px 0px 8px;&quot;&gt;Patient_lname&lt;br style=&quot;border-color: var(--border-color);&quot;&gt;&lt;/p&gt;&lt;p style=&quot;border-color: var(--border-color); margin: 0px 0px 0px 8px;&quot;&gt;Patient_dob&lt;br style=&quot;border-color: var(--border-color);&quot;&gt;&lt;/p&gt;&lt;p style=&quot;border-color: var(--border-color); margin: 0px 0px 0px 8px;&quot;&gt;Patient_gender_code&lt;/p&gt;&lt;p style=&quot;border-color: var(--border-color); margin: 0px 0px 0px 8px;&quot;&gt;Patient_email&lt;br&gt;&lt;/p&gt;&lt;p style=&quot;border-color: var(--border-color); margin: 0px 0px 0px 8px;&quot;&gt;Patient_phone_no&lt;/p&gt;&lt;p style=&quot;border-color: var(--border-color); margin: 0px 0px 0px 8px;&quot;&gt;Patient_address1&lt;br style=&quot;border-color: var(--border-color);&quot;&gt;&lt;/p&gt;&lt;p style=&quot;border-color: var(--border-color); margin: 0px 0px 0px 8px;&quot;&gt;Patient_address2&lt;/p&gt;&lt;p style=&quot;border-color: var(--border-color); margin: 0px 0px 0px 8px;&quot;&gt;Patient_zip_code&lt;br&gt;&lt;/p&gt;&lt;p style=&quot;border-color: var(--border-color); margin: 0px 0px 0px 8px;&quot;&gt;&lt;br&gt;&lt;/p&gt;&lt;p style=&quot;border-color: var(--border-color); margin: 0px 0px 0px 8px;&quot;&gt;&lt;span style=&quot;border-color: var(--border-color); background-color: initial;&quot;&gt;&lt;b style=&quot;border-color: var(--border-color);&quot;&gt;Patient_city_code (FK)&lt;/b&gt;&lt;/span&gt;&lt;/p&gt;&lt;p style=&quot;border-color: var(--border-color); margin: 0px 0px 0px 8px;&quot;&gt;&lt;b style=&quot;border-color: var(--border-color);&quot;&gt;Patient_familydoc_id (FK)&lt;/b&gt;&lt;/p&gt;" style="verticalAlign=top;align=left;overflow=fill;fontSize=12;fontFamily=Helvetica;html=1;strokeColor=#003366;shadow=1;fillColor=#D4E1F5;fontColor=#003366" parent="1" vertex="1">
          <mxGeometry x="900" y="330" width="160" height="220" as="geometry" />
        </mxCell>
        <mxCell id="28" value="&lt;p style=&quot;margin: 0px; margin-top: 4px; text-align: center; text-decoration: underline;&quot;&gt;&lt;strong&gt;Doctor&lt;/strong&gt;&lt;/p&gt;&lt;hr&gt;&lt;p style=&quot;margin: 0px; margin-left: 8px;&quot;&gt;&lt;b&gt;Doctor_ID (PK)&lt;/b&gt;&lt;br&gt;&lt;/p&gt;&lt;p style=&quot;margin: 0px; margin-left: 8px;&quot;&gt;Doctor_fname&lt;br&gt;&lt;/p&gt;&lt;p style=&quot;margin: 0px; margin-left: 8px;&quot;&gt;Doctor_lname&lt;br&gt;&lt;/p&gt;&lt;p style=&quot;margin: 0px; margin-left: 8px;&quot;&gt;Doctor_dob&lt;/p&gt;&lt;p style=&quot;margin: 0px; margin-left: 8px;&quot;&gt;Doctor_gender&lt;/p&gt;&lt;p style=&quot;margin: 0px; margin-left: 8px;&quot;&gt;Doctor_email&lt;/p&gt;&lt;p style=&quot;border-color: var(--border-color); margin: 0px 0px 0px 8px;&quot;&gt;Doctor_phone_no&lt;/p&gt;&lt;p style=&quot;border-color: var(--border-color); margin: 0px 0px 0px 8px;&quot;&gt;&lt;br&gt;&lt;/p&gt;&lt;p style=&quot;border-color: var(--border-color); margin: 0px 0px 0px 8px;&quot;&gt;&lt;b&gt;Doc_Hospita_Branch_code (FK)&lt;/b&gt;&lt;/p&gt;&lt;p style=&quot;border-color: var(--border-color); margin: 0px 0px 0px 8px;&quot;&gt;&lt;b&gt;Doc_Service_code (FK)&lt;/b&gt;&lt;/p&gt;" style="verticalAlign=top;align=left;overflow=fill;fontSize=12;fontFamily=Helvetica;html=1;strokeColor=#003366;shadow=1;fillColor=#D4E1F5;fontColor=#003366" parent="1" vertex="1">
          <mxGeometry x="130" y="335.58" width="200" height="194.42" as="geometry" />
        </mxCell>
        <object label="" id="oNx-tzqD3SN3q4KlSjPI-123">
          <mxCell style="edgeStyle=orthogonalEdgeStyle;rounded=1;orthogonalLoop=0;jettySize=auto;startArrow=oval;startFill=1;curved=0;endSize=6;startSize=6;endArrow=oval;fontSize=11;align=center;verticalAlign=middle;fillColor=#D4E1F5;strokeColor=default;fontColor=default;labelBackgroundColor=default;shadow=0;strokeWidth=2;endFill=1;" parent="1" edge="1">
            <mxGeometry relative="1" as="geometry">
              <mxPoint x="720" y="620" as="targetPoint" />
              <mxPoint x="670" y="480" as="sourcePoint" />
              <Array as="points">
                <mxPoint x="720" y="480" />
              </Array>
            </mxGeometry>
          </mxCell>
        </object>
        <mxCell id="32" value="&lt;p style=&quot;margin: 0px; margin-top: 4px; text-align: center; text-decoration: underline;&quot;&gt;&lt;strong&gt;Hospital_Branch&lt;/strong&gt;&lt;/p&gt;&lt;hr&gt;&lt;p style=&quot;margin: 0px; margin-left: 8px;&quot;&gt;&lt;b&gt;Hospital_Branch_ID (PK)&lt;/b&gt;&lt;/p&gt;&lt;p style=&quot;margin: 0px; margin-left: 8px;&quot;&gt;Hospital_Branch_name&lt;/p&gt;&lt;p style=&quot;margin: 0px; margin-left: 8px;&quot;&gt;Hospital_Branch_Type&lt;/p&gt;&lt;p style=&quot;border-color: var(--border-color); margin: 0px 0px 0px 8px;&quot;&gt;Hospital_Branch_zip_code&lt;br style=&quot;border-color: var(--border-color);&quot;&gt;&lt;/p&gt;&lt;p style=&quot;border-color: var(--border-color); margin: 0px 0px 0px 8px;&quot;&gt;&lt;br style=&quot;border-color: var(--border-color);&quot;&gt;&lt;/p&gt;&lt;p style=&quot;margin: 0px; margin-left: 8px;&quot;&gt;Hospital_Branch_city_code (FK)&lt;/p&gt;" style="verticalAlign=top;align=left;overflow=fill;fontSize=12;fontFamily=Helvetica;html=1;strokeColor=#003366;shadow=1;fillColor=#D4E1F5;fontColor=#003366" parent="1" vertex="1">
          <mxGeometry x="630" y="630" width="180" height="146.16" as="geometry" />
        </mxCell>
        <mxCell id="33" value="&lt;p style=&quot;margin: 0px; margin-top: 4px; text-align: center; text-decoration: underline;&quot;&gt;&lt;b&gt;Procedure&lt;/b&gt;&lt;/p&gt;&lt;hr&gt;&lt;p style=&quot;border-color: var(--border-color); margin: 0px 0px 0px 8px;&quot;&gt;&lt;b&gt;Procedure_ID (PK)&lt;/b&gt;&lt;/p&gt;&lt;p style=&quot;border-color: var(--border-color); margin: 0px 0px 0px 8px;&quot;&gt;Procedure_Desc&lt;br&gt;&lt;/p&gt;&lt;p style=&quot;border-color: var(--border-color); margin: 0px 0px 0px 8px;&quot;&gt;&lt;br&gt;&lt;/p&gt;&lt;p style=&quot;margin: 0px; margin-left: 8px;&quot;&gt;&lt;br&gt;&lt;/p&gt;" style="verticalAlign=top;align=left;overflow=fill;fontSize=12;fontFamily=Helvetica;html=1;strokeColor=#003366;shadow=1;fillColor=#D4E1F5;fontColor=#003366" parent="1" vertex="1">
          <mxGeometry x="130" y="630" width="180" height="146.16" as="geometry" />
        </mxCell>
        <mxCell id="34" value="&lt;p style=&quot;margin: 0px ; margin-top: 4px ; text-align: center ; text-decoration: underline&quot;&gt;&lt;strong&gt;Services&lt;/strong&gt;&lt;/p&gt;&lt;hr&gt;&lt;p style=&quot;margin: 0px ; margin-left: 8px&quot;&gt;&lt;b&gt;Service_ID (PK)&lt;/b&gt;&lt;/p&gt;&lt;p style=&quot;margin: 0px ; margin-left: 8px&quot;&gt;Service_type&lt;/p&gt;&lt;p style=&quot;margin: 0px ; margin-left: 8px&quot;&gt;Service_Description&lt;/p&gt;&lt;p style=&quot;margin: 0px ; margin-left: 8px&quot;&gt;&lt;br&gt;&lt;/p&gt;&lt;p style=&quot;margin: 0px ; margin-left: 8px&quot;&gt;&lt;br&gt;&lt;/p&gt;" style="verticalAlign=top;align=left;overflow=fill;fontSize=12;fontFamily=Helvetica;html=1;strokeColor=#003366;shadow=1;fillColor=#D4E1F5;fontColor=#003366" parent="1" vertex="1">
          <mxGeometry x="370" y="630" width="180" height="146.16" as="geometry" />
        </mxCell>
        <mxCell id="84" value="" style="endArrow=oval;endSize=6;startArrow=oval;startSize=6;startFill=1;edgeStyle=orthogonalEdgeStyle;strokeWidth=2;endFill=1;fillColor=#D4E1F5;shadow=0;" parent="1" edge="1">
          <mxGeometry x="1389.36" y="130" as="geometry">
            <mxPoint x="670" y="380" as="sourcePoint" />
            <mxPoint x="900" y="380" as="targetPoint" />
            <Array as="points">
              <mxPoint x="780" y="380" />
              <mxPoint x="780" y="380" />
            </Array>
          </mxGeometry>
        </mxCell>
        <mxCell id="oNx-tzqD3SN3q4KlSjPI-115" value="&lt;p style=&quot;margin: 0px; margin-top: 4px; text-align: center; text-decoration: underline;&quot;&gt;&lt;strong&gt;Visit_Type&lt;/strong&gt;&lt;/p&gt;&lt;hr&gt;&lt;p style=&quot;margin: 0px; margin-left: 8px;&quot;&gt;&lt;b&gt;Visit_Type_ID (PK)&lt;/b&gt;&lt;/p&gt;&lt;p style=&quot;margin: 0px; margin-left: 8px;&quot;&gt;Visit_Type_Desc&lt;/p&gt;&lt;p style=&quot;margin: 0px; margin-left: 8px;&quot;&gt;&lt;br&gt;&lt;/p&gt;" style="verticalAlign=top;align=left;overflow=fill;fontSize=12;fontFamily=Helvetica;html=1;strokeColor=#003366;shadow=1;fillColor=#D4E1F5;fontColor=#003366" parent="1" vertex="1">
          <mxGeometry x="130" y="96" width="180" height="146.16" as="geometry" />
        </mxCell>
        <mxCell id="oNx-tzqD3SN3q4KlSjPI-118" value="&lt;p style=&quot;margin: 0px; margin-top: 4px; text-align: center; text-decoration: underline;&quot;&gt;&lt;strong&gt;City&lt;/strong&gt;&lt;/p&gt;&lt;hr&gt;&lt;p style=&quot;margin: 0px; margin-left: 8px;&quot;&gt;&lt;span style=&quot;background-color: initial;&quot;&gt;&lt;b&gt;city_code (PK)&lt;/b&gt;&lt;/span&gt;&lt;br&gt;&lt;/p&gt;&lt;p style=&quot;margin: 0px; margin-left: 8px;&quot;&gt;city_name&lt;br&gt;&lt;/p&gt;&lt;p style=&quot;margin: 0px; margin-left: 8px;&quot;&gt;state_code&lt;/p&gt;&lt;p style=&quot;margin: 0px; margin-left: 8px;&quot;&gt;state_name&lt;/p&gt;&lt;p style=&quot;margin: 0px; margin-left: 8px;&quot;&gt;country_code&lt;br&gt;&lt;/p&gt;&lt;p style=&quot;margin: 0px; margin-left: 8px;&quot;&gt;country_name&lt;/p&gt;&lt;p style=&quot;margin: 0px; margin-left: 8px;&quot;&gt;&lt;br&gt;&lt;/p&gt;&lt;p style=&quot;margin: 0px; margin-left: 8px;&quot;&gt;&lt;br&gt;&lt;span style=&quot;white-space: pre;&quot;&gt;&amp;nbsp;&lt;/span&gt;&lt;br&gt;&lt;/p&gt;" style="verticalAlign=top;align=left;overflow=fill;fontSize=12;fontFamily=Helvetica;html=1;strokeColor=#003366;shadow=1;fillColor=#D4E1F5;fontColor=#003366" parent="1" vertex="1">
          <mxGeometry x="880" y="630" width="180" height="146.16" as="geometry" />
        </mxCell>
        <mxCell id="oNx-tzqD3SN3q4KlSjPI-119" style="edgeStyle=orthogonalEdgeStyle;rounded=0;orthogonalLoop=1;jettySize=auto;html=1;exitX=0.5;exitY=1;exitDx=0;exitDy=0;" parent="1" source="oNx-tzqD3SN3q4KlSjPI-118" target="oNx-tzqD3SN3q4KlSjPI-118" edge="1">
          <mxGeometry relative="1" as="geometry" />
        </mxCell>
        <mxCell id="oNx-tzqD3SN3q4KlSjPI-131" value="" style="resizable=0;align=right;verticalAlign=top;labelBackgroundColor=#ffffff;fontSize=10;strokeColor=#003366;shadow=1;fillColor=#D4E1F5;fontColor=#003366" parent="1" connectable="0" vertex="1">
          <mxGeometry x="-350.00016816513323" y="447.49545428983737" as="geometry">
            <mxPoint x="415" y="155" as="offset" />
          </mxGeometry>
        </mxCell>
        <mxCell id="oNx-tzqD3SN3q4KlSjPI-136" value="" style="endArrow=oval;endSize=6;startArrow=oval;startSize=6;startFill=1;edgeStyle=orthogonalEdgeStyle;entryX=-0.031;entryY=0.356;entryDx=0;entryDy=0;entryPerimeter=0;strokeWidth=2;endFill=1;fillColor=#D4E1F5;shadow=0;jumpStyle=arc;" parent="1" target="21" edge="1">
          <mxGeometry x="1389.36" y="130" as="geometry">
            <mxPoint x="670" y="413" as="sourcePoint" />
            <mxPoint x="890" y="160" as="targetPoint" />
            <Array as="points">
              <mxPoint x="680" y="413" />
              <mxPoint x="680" y="413" />
              <mxPoint x="756" y="413" />
              <mxPoint x="756" y="160" />
            </Array>
          </mxGeometry>
        </mxCell>
        <mxCell id="oNx-tzqD3SN3q4KlSjPI-139" value="" style="endArrow=oval;endSize=6;startArrow=oval;startSize=6;startFill=1;edgeStyle=orthogonalEdgeStyle;strokeWidth=2;endFill=1;fillColor=#D4E1F5;shadow=0;" parent="1" edge="1">
          <mxGeometry x="1389.36" y="130" as="geometry">
            <mxPoint x="490" y="500" as="sourcePoint" />
            <mxPoint x="490" y="140" as="targetPoint" />
            <Array as="points">
              <mxPoint x="490" y="496" />
              <mxPoint x="490" y="500" />
              <mxPoint x="430" y="500" />
              <mxPoint x="430" y="140" />
            </Array>
          </mxGeometry>
        </mxCell>
        <mxCell id="oNx-tzqD3SN3q4KlSjPI-142" value="" style="endArrow=oval;endSize=6;startArrow=oval;startSize=6;startFill=1;edgeStyle=orthogonalEdgeStyle;strokeWidth=2;endFill=1;fillColor=#D4E1F5;shadow=0;jumpStyle=arc;" parent="1" edge="1">
          <mxGeometry x="1389.36" y="130" as="geometry">
            <mxPoint x="315" y="180.02552000000003" as="sourcePoint" />
            <mxPoint x="490" y="400" as="targetPoint" />
            <Array as="points">
              <mxPoint x="370" y="180" />
              <mxPoint x="370" y="400" />
              <mxPoint x="490" y="400" />
              <mxPoint x="490" y="396" />
            </Array>
          </mxGeometry>
        </mxCell>
        <mxCell id="oNx-tzqD3SN3q4KlSjPI-145" value="" style="endArrow=oval;endSize=6;startArrow=oval;startSize=6;startFill=1;edgeStyle=orthogonalEdgeStyle;strokeWidth=2;endFill=1;fillColor=#D4E1F5;shadow=0;" parent="1" edge="1">
          <mxGeometry x="1389.36" y="130" as="geometry">
            <mxPoint x="490" y="520" as="sourcePoint" />
            <mxPoint x="240" y="620" as="targetPoint" />
            <Array as="points">
              <mxPoint x="360" y="520" />
              <mxPoint x="360" y="560" />
              <mxPoint x="240" y="560" />
            </Array>
          </mxGeometry>
        </mxCell>
        <mxCell id="oNx-tzqD3SN3q4KlSjPI-148" value="" style="endArrow=oval;endSize=6;startArrow=oval;startSize=6;startFill=1;edgeStyle=orthogonalEdgeStyle;entryX=0.394;entryY=-0.031;entryDx=0;entryDy=0;entryPerimeter=0;strokeWidth=2;endFill=1;fillColor=#D4E1F5;shadow=0;" parent="1" target="34" edge="1">
          <mxGeometry x="1389.36" y="130" as="geometry">
            <mxPoint x="490" y="550" as="sourcePoint" />
            <mxPoint x="440" y="620" as="targetPoint" />
            <Array as="points">
              <mxPoint x="441" y="549" />
            </Array>
          </mxGeometry>
        </mxCell>
        <mxCell id="oNx-tzqD3SN3q4KlSjPI-154" value="" style="endArrow=open;endSize=12;startArrow=diamondThin;startSize=14;startFill=0;edgeStyle=orthogonalEdgeStyle;exitX=1.022;exitY=0.688;exitDx=0;exitDy=0;exitPerimeter=0;" parent="1" source="32" edge="1">
          <mxGeometry x="1389.36" y="130" as="geometry">
            <mxPoint x="820" y="730" as="sourcePoint" />
            <mxPoint x="870" y="730" as="targetPoint" />
            <Array as="points">
              <mxPoint x="824" y="731" />
            </Array>
          </mxGeometry>
        </mxCell>
        <mxCell id="oNx-tzqD3SN3q4KlSjPI-161" value="" style="endArrow=oval;endSize=6;startArrow=oval;startSize=6;startFill=1;edgeStyle=orthogonalEdgeStyle;endFill=1;strokeWidth=2;fillColor=#D4E1F5;shadow=0;entryX=0.556;entryY=-0.021;entryDx=0;entryDy=0;entryPerimeter=0;" parent="1" target="oNx-tzqD3SN3q4KlSjPI-118" edge="1">
          <mxGeometry x="1389.36" y="130" as="geometry">
            <mxPoint x="979.5" y="550" as="sourcePoint" />
            <mxPoint x="980" y="620" as="targetPoint" />
            <Array as="points">
              <mxPoint x="980" y="580" />
            </Array>
          </mxGeometry>
        </mxCell>
        <mxCell id="oNx-tzqD3SN3q4KlSjPI-168" value="" style="endArrow=oval;endSize=6;startArrow=oval;startSize=6;startFill=1;edgeStyle=orthogonalEdgeStyle;strokeWidth=2;endFill=1;entryX=1.013;entryY=0.711;entryDx=0;entryDy=0;entryPerimeter=0;fillColor=#D4E1F5;shadow=0;" parent="1" target="27" edge="1">
          <mxGeometry x="1389.36" y="130" as="geometry">
            <mxPoint x="120" y="480" as="sourcePoint" />
            <mxPoint x="1070" y="490" as="targetPoint" />
            <Array as="points">
              <mxPoint x="40" y="480" />
              <mxPoint x="40" y="840" />
              <mxPoint x="1130" y="840" />
              <mxPoint x="1130" y="486" />
            </Array>
          </mxGeometry>
        </mxCell>
        <mxCell id="oNx-tzqD3SN3q4KlSjPI-171" value="" style="endArrow=oval;endSize=6;startArrow=oval;startSize=6;startFill=1;edgeStyle=orthogonalEdgeStyle;entryX=0.389;entryY=0.982;entryDx=0;entryDy=0;entryPerimeter=0;strokeWidth=2;endFill=1;fillColor=#D4E1F5;shadow=0;" parent="1" edge="1">
          <mxGeometry x="1389.36" y="130" as="geometry">
            <mxPoint x="120" y="510" as="sourcePoint" />
            <mxPoint x="723.02" y="783.5291199999999" as="targetPoint" />
            <Array as="points">
              <mxPoint x="90" y="510" />
              <mxPoint x="90" y="830" />
              <mxPoint x="723" y="830" />
            </Array>
          </mxGeometry>
        </mxCell>
        <mxCell id="oNx-tzqD3SN3q4KlSjPI-127" value="" style="endArrow=oval;endSize=6;startArrow=oval;startSize=6;startFill=1;edgeStyle=orthogonalEdgeStyle;entryX=0.006;entryY=0.287;entryDx=0;entryDy=0;entryPerimeter=0;strokeWidth=2;endFill=1;fillColor=#D4E1F5;shadow=0;jumpStyle=arc;" parent="1" edge="1">
          <mxGeometry x="1389.36" y="130" as="geometry">
            <mxPoint x="490" y="446" as="sourcePoint" />
            <mxPoint x="330" y="446" as="targetPoint" />
            <Array as="points" />
          </mxGeometry>
        </mxCell>
      </root>
    </mxGraphModel>
  </diagram>
</mxfile>
